<svg  class="logo" version="1.1" xmlns="http://www.w3.org/2000/svg" xmlns:xlink="http://www.w3.org/1999/xlink" x="0px" y="0px" viewBox="0 329.9 612 132.1"
    enable-background="new 0 329.9 612 132.1" xml:space="preserve" preserveAspectRatio="none">
    <g class="logo__body">
        <path class="logo__body-path" fill="#FFFFFF" d="M54.1,461.9c-4.7-1.7-9-4.2-12.8-7.3c-17.9-12.2-26.5-30.2-30.9-50.6c-1.7-4.7,0.8-9.8,5.4-11.5
                    c0.1,0,0.2-0.1,0.3-0.1c3.9-1.5,7.8-3.2,12.8-5.2c-0.7,28.8,7.5,53.3,26.5,73.7c32-22.4,50.1-53.1,57.7-90.3
                    c2.9-14.2,1.7-15.4-13.1-15.6c-31.9-0.5-63.4,8.1-90.7,24.7c-0.8,0.5-1.6,0.9-2.5,1.3c-1.7-3.1-3.2-6.3-4.5-9.6
                    c0,0-10.7-21.1,14.3-31.5c42.8-17.8,83.7-11.8,120.6,17c5.1,3.7,7.8,10,7,16.2c-1.6,21.9-14.2,38.4-27.6,53.8
                    c-15.3,17.4-34.3,30.8-58.2,34.9C56.9,462.1,55.5,462.1,54.1,461.9z"></path>
    </g>
    <g class="logo__word">
        <path  class="logo__body-path" fill="#FFFFFF" d="M188.3,429.2V362h44.2v9.6h-33.7v16.3h17.3c5.8-0.1,11.3,2,15.5,6.1c4,3.8,6.3,9.2,6.1,14.7
                    c0.1,5.5-2.1,10.9-6.1,14.7c-4.2,3.9-9.7,6-15.5,5.8H188.3z M216.2,419.6c6.1,0,11.1-4.9,11.1-11s-4.9-11.1-11-11.1c0,0,0,0,0,0
                    h-17.3v22.1H216.2z"></path>
        <path class="logo__body-path" fill="#FFFFFF" d="M299.8,429.2v-48.5l-37.5,48.5H253V362h10.6v48.6l37.5-48.6h9.1v67.3H299.8z"></path>
        <path class="logo__body-path" fill="#FFFFFF" d="M335.9,371.1c14.2-13.4,36.4-13.4,50.6,0c6.7,6.4,10.4,15.3,10.2,24.5c0.2,9.2-3.5,18.1-10.2,24.5
                    c-14.2,13.4-36.4,13.4-50.6,0c-6.7-6.4-10.4-15.3-10.2-24.5C325.5,386.4,329.2,377.5,335.9,371.1z M343.5,413.2
                    c9.7,9.8,25.5,9.9,35.3,0.2c4.8-4.7,7.4-11.2,7.4-17.9c0-13.8-11.2-25-25-25c-13.8,0-25,11.2-25,25c0,0,0,0,0,0
                    C336.2,402.1,338.8,408.6,343.5,413.2z"></path>
        <path class="logo__body-path" fill="#FFFFFF" d="M466.5,429.2h-10.6v-57.7h-33.1v57.7h-10.6V362h54.3L466.5,429.2z"></path>
        <path class="logo__body-path" fill="#FFFFFF" d="M505.8,362h10.6l27.9,67.3h-11l-7.2-17.8h-29.8l-7.2,17.8h-11L505.8,362z M500.1,401.8h22l-11-27.9
                    L500.1,401.8z"></path>
        <path class="logo__body-path" fill="#FFFFFF" d="M566.4,394.7l30.3-32.7h13.5l-25.9,27.9l27.9,39.4h-13l-22.1-31.7l-10.6,11.5v20.2h-10.6V362h10.6
                    L566.4,394.7z"></path>
    </g>
</svg>