<svg class="logo" xmlns="http://www.w3.org/2000/svg" viewBox="0 329.9 612 132.1" preserveAspectRatio="none"><g class="logo__body"><path class="logo__body-path" fill="#FFF" d="M54.1 461.9c-4.7-1.7-9-4.2-12.8-7.3-17.9-12.2-26.5-30.2-30.9-50.6-1.7-4.7.8-9.8 5.4-11.5.1 0 .2-.1.3-.1 3.9-1.5 7.8-3.2 12.8-5.2-.7 28.8 7.5 53.3 26.5 73.7 32-22.4 50.1-53.1 57.7-90.3 2.9-14.2 1.7-15.4-13.1-15.6-31.9-.5-63.4 8.1-90.7 24.7-.8.5-1.6.9-2.5 1.3-1.7-3.1-3.2-6.3-4.5-9.6 0 0-10.7-21.1 14.3-31.5 42.8-17.8 83.7-11.8 120.6 17 5.1 3.7 7.8 10 7 16.2-1.6 21.9-14.2 38.4-27.6 53.8-15.3 17.4-34.3 30.8-58.2 34.9-1.5.3-2.9.3-4.3.1z"/></g><g class="logo__word"><path class="logo__body-path" fill="#FFF" d="M188.3 429.2V362h44.2v9.6h-33.7v16.3h17.3c5.8-.1 11.3 2 15.5 6.1 4 3.8 6.3 9.2 6.1 14.7.1 5.5-2.1 10.9-6.1 14.7-4.2 3.9-9.7 6-15.5 5.8h-27.8zm27.9-9.6c6.1 0 11.1-4.9 11.1-11s-4.9-11.1-11-11.1H199v22.1h17.2zM299.8 429.2v-48.5l-37.5 48.5H253V362h10.6v48.6l37.5-48.6h9.1v67.3h-10.4zM335.9 371.1c14.2-13.4 36.4-13.4 50.6 0 6.7 6.4 10.4 15.3 10.2 24.5.2 9.2-3.5 18.1-10.2 24.5-14.2 13.4-36.4 13.4-50.6 0-6.7-6.4-10.4-15.3-10.2-24.5-.2-9.2 3.5-18.1 10.2-24.5zm7.6 42.1c9.7 9.8 25.5 9.9 35.3.2 4.8-4.7 7.4-11.2 7.4-17.9 0-13.8-11.2-25-25-25s-25 11.2-25 25c0 6.6 2.6 13.1 7.3 17.7zM466.5 429.2h-10.6v-57.7h-33.1v57.7h-10.6V362h54.3v67.2zM505.8 362h10.6l27.9 67.3h-11l-7.2-17.8h-29.8l-7.2 17.8h-11l27.7-67.3zm-5.7 39.8h22l-11-27.9-11 27.9zM566.4 394.7l30.3-32.7h13.5l-25.9 27.9 27.9 39.4h-13l-22.1-31.7-10.6 11.5v20.2h-10.6V362h10.6l-.1 32.7z"/></g></svg>